<svg height="100" viewBox="0 0 500 100" width="500" xmlns="http://www.w3.org/2000/svg"><g fill="#fff"><path d="m37.6 59.8c.3 3.7 2.7 5.3 6.2 5.3s4.5-.8 4.5-2.8-2-3.1-9.5-5c-16.7-4.3-19.2-10.3-19.2-17.3s5.2-17 23.3-17 23.8 7.9 24.4 16.8h-19c-.3-2.6-1.6-4.4-5-4.4s-3.6.7-3.6 2.4 1.7 2.4 9.3 4.6c17.4 4.7 20.1 10.8 20.1 18 0 9.8-7.8 17-25.3 17s-24.7-7.3-25.6-17.6z"/><path d="m117.4 61.2v14.9h-19.6a27.3 27.3 0 0 1 -.3-4.1c-2.8 3.6-6.2 5.2-11.6 5.2-8.7 0-12.6-5-12.6-14.2v-26.8h19.9v24.1c0 2.6.5 3.6 2 3.6s2.1-1.2 2.1-4.3v-23.4h20.1z"/><path d="m168.6 68.7c0 13.5-4.7 21.7-23.7 21.7s-20.7-8.9-21.4-13.6h19.1c.3 1.5.9 2.4 3 2.4s3-1.2 3-6v-3c-1.9 2.7-4.7 4.5-10.2 4.5-10.2 0-15.6-8.2-15.6-18.8 0-12.6 6.6-20.7 16.5-20.7 5.7 0 8.6 2.2 9.3 4.3.1-1.1.3-2.5.4-3.3h19.7c0 1.6-.1 5.4-.1 11.5zm-22.4-5.6c2.7 0 3-2.7 3-8s-.1-8.5-2.7-8.5-3.3 2-3.3 8.3.6 8.2 3 8.2z"/><path d="m216.7 62.1c0 5.7.1 11.9.4 14h-17.8a16.2 16.2 0 0 1 -.7-3.8c-2.7 3-6.2 4.8-11.8 4.8-7.6 0-13.9-4.2-13.9-12.9s7.8-13.6 21-13.6h3.9v-2.2c0-2.3-.8-3.1-2.5-3.1s-2.5 1.2-2.6 3.3h-18c.4-5.2 3.2-13.4 20.8-13.4s21.2 6.5 21.2 16.1zm-18.9-3.4h-1.9c-2.9 0-3.8 1.4-3.8 3.4s1.1 3 2.6 3 3.1-1.5 3.1-4.8z"/><path d="m223.3 48.8c0-4.2 0-9.2-.1-12.6h19.5c.2 2 .4 4.3.4 6 1.3-2.8 4.7-6.9 11.6-7v17.5c-9.2-.5-11.3 1.9-11.3 8v15.4h-20.1z"/><path d="m284.7 38h-13.5v-13.6h47.5v13.6h-13.3v38.1h-20.7z"/><path d="m358.6 62.1c0 5.7.1 11.9.4 14h-17.8a16.2 16.2 0 0 1 -.7-3.8c-2.7 3-6.2 4.8-11.8 4.8-7.6 0-13.9-4.2-13.9-12.9s7.8-13.6 21-13.6h3.9v-2.2c0-2.3-.8-3.1-2.5-3.1s-2.5 1.2-2.6 3.3h-18c.4-5.2 3.2-13.4 20.8-13.4s21.2 6.5 21.2 16.1zm-18.9-3.4h-1.9c-2.9 0-3.8 1.4-3.8 3.4s1.1 3 2.6 3 3.1-1.5 3.1-4.8z"/><path d="m380.8 63.4c.4 1.9 1.9 2.9 4.1 2.9s2.8-.3 2.8-1.5-1.9-1.8-7.1-2.8c-14.5-2.7-16.3-8-16.3-13.5s3.9-13.3 19.8-13.3c13.9 0 19.7 6.5 20.2 12.6h-16.8c-.3-1.8-1.3-2.8-3.6-2.8s-2.4.6-2.4 1.5 1.6 1.6 8.4 3c11.2 2.4 15.7 6.3 15.7 13.4s-5.7 14.2-21.2 14.2c-13.9 0-20.2-6.6-21-13.7z"/><path d="m407.2 36.2h5.4v-9.9h19.5v9.9h6v12h-6v13.9c0 1.8.6 2.7 3.5 2.7h1.6v11c-2.3.8-7.5 1.2-10.2 1.2-11.8 0-14.7-5-14.7-13.4v-15.4h-5.1z"/><path d="m461.4 59.7c0 3.5.4 6.3 3.3 6.3s3-1.4 3.3-3.1h19.3c-1.6 6.1-6.4 14.2-22.8 14.2-18.3 0-23.3-10.8-23.3-21.1s6.1-20.8 23.4-20.8 23 11.6 23 20.9c0 1.3-.1 2.6-.2 3.6zm6.1-8.7c0-2.9-.3-5.2-3-5.2s-3.1 2.1-3.1 5.2z"/></g></svg>